# xmcd
#
# Track frame offsets: 
#        182
#        13610
#        24410
#        35910
#        49305
#        60375
#        73502
#        83767
#        95795
#        114100
#        123995
#        133772
#        150755
#        163167
#        175145
#        187310
#        206217
#        217480
#        229482
#
# Disc length: 3206 seconds
#
# Revision: 7
# Processed by: cddbd v1.5.2PL0 Copyright (c) Steve Scherf et al.
# Submitted via: ExactAudioCopyFreeDBPlugin 1.0
#
DISCID=170c8413
DTITLE=Various Artist - Bar-B-Que Soul-a-Bration! [Rhino companion bo
DTITLE=x set to cookbook]
DYEAR=1998
DGENRE=Soul
TTITLE0=King Curtis - Memphis Soul Stew
TTITLE1=Arthur Conley - Sweet Soul Music
TTITLE2=Wendy Rene - Bar-B-Q
TTITLE3=Brother Jack McDuff - Hot Barbecue
TTITLE4=Mongo Santamaria - Watermelon Man
TTITLE5=Booker T. and the M.G.'s - Green Onions
TTITLE6=Shirley Ellis - The Nitty Gritty
TTITLE7=Little Milton - Grits and Groceries (All Around the World)
TTITLE8=James Brown - Grits
TTITLE9=The Asylum Choir - Soul Food
TTITLE10=Albert Collins - Soul Food
TTITLE11=Tony Joe White - Polk Salad Annie
TTITLE12=Otis Redding - The Happy Song (Dum-Dum)
TTITLE13=Billy Stewart - Summertime
TTITLE14=The Meters - Chicken Strut
TTITLE15=Bobby Bland and B.B. King - Let the Good Times Roll
TTITLE16=Brenton Wood - The Oogum Boogum Song
TTITLE17=Sam and Dave - Soul Man
TTITLE18=Aretha Franklin - Respect
EXTD=Rhino Records R2 75214             1998 YEAR: 1998
EXTT0=
EXTT1=
EXTT2=
EXTT3=
EXTT4=
EXTT5=
EXTT6=
EXTT7=
EXTT8=
EXTT9=
EXTT10=
EXTT11=
EXTT12=
EXTT13=
EXTT14=
EXTT15=
EXTT16=
EXTT17=
EXTT18=
PLAYORDER=
